<svg width="24" height="24" viewBox="0 0 24 24" fill="#F9A8D4" xmlns="http://www.w3.org/2000/svg">
  <path fill-rule="evenodd" clip-rule="evenodd" d="M12 2C6.48 2 2 6.48 2 12C2 17.52 6.48 22 12 22C17.52 22 22 17.52 22 12C22 6.48 17.52 2 12 2ZM6.34 17.66L10.59 8.82C10.74 8.5 11.05 8.29 11.4 8.24L17.66 6.34L13.41 15.18C13.26 15.5 12.95 15.71 12.6 15.76L6.34 17.66ZM12 10.5C11.1716 10.5 10.5 11.1716 10.5 12C10.5 12.8284 11.1716 13.5 12 13.5C12.8284 13.5 13.5 12.8284 13.5 12C13.5 11.1716 12.8284 10.5 12 10.5Z"/>
</svg>

