<svg width="400" height="200" viewBox="0 0 400 200" fill="none" xmlns="http://www.w3.org/2000/svg">
  <rect width="400" height="200" rx="10" fill="#111827"/>
  <rect x="44" y="36" width="168" height="128" rx="10" stroke="#6EE7B7" stroke-width="3"/>
  <rect x="44" y="36" width="168" height="24" rx="10" fill="#6EE7B7" opacity="0.12"/>
  <line x1="44" y1="60" x2="212" y2="60" stroke="#6EE7B7" stroke-width="3"/>
  <circle cx="60" cy="48" r="3" fill="#6EE7B7" opacity="0.8"/>
  <circle cx="74" cy="48" r="3" fill="#6EE7B7" opacity="0.5"/>
  <circle cx="88" cy="48" r="3" fill="#6EE7B7" opacity="0.3"/>
  <path d="M64 84l10 8-10 8" stroke="#6EE7B7" stroke-width="2.5" stroke-linecap="round" stroke-linejoin="round"/>
  <rect x="82" y="88" width="8" height="12" fill="#6EE7B7" opacity="0.9"/>
  <rect x="64" y="116" width="60" height="6" rx="3" fill="#6EE7B7" opacity="0.6"/>
  <rect x="72" y="130" width="88" height="6" rx="3" fill="#6EE7B7" opacity="0.4"/>
  <rect x="72" y="144" width="48" height="6" rx="3" fill="#6EE7B7" opacity="0.25"/>
  <circle cx="262" cy="70" r="7" fill="#6EE7B7" opacity="0.9"/>
  <path d="M269 68V42" stroke="#6EE7B7" stroke-width="2.5" stroke-linecap="round"/>
  <circle cx="292" cy="64" r="7" fill="#6EE7B7" opacity="0.75"/>
  <path d="M299 62V36" stroke="#6EE7B7" stroke-width="2.5" stroke-linecap="round"/>
  <path d="M269 42l30-6" stroke="#6EE7B7" stroke-width="3" stroke-linecap="round"/>
  <line x1="240" y1="150" x2="356" y2="150" stroke="#6EE7B7" stroke-width="3" stroke-linecap="round" opacity="0.8"/>
  <rect x="256" y="130" width="20" height="20" rx="3" stroke="#6EE7B7" stroke-width="2.5"/>
  <path d="M288 120c10-18 32-20 44 6" stroke="#6EE7B7" stroke-width="2" stroke-dasharray="4 5" opacity="0.55" fill="none"/>
  <circle cx="332" cy="132" r="6" stroke="#6EE7B7" stroke-width="2.5"/>
</svg>
