<svg width="24" height="24" viewBox="0 0 24 24" fill="#FDE047" xmlns="http://www.w3.org/2000/svg">
  <path d="M10 2H14C14.55 2 15 2.45 15 3V7C15 7.55 14.55 8 14 8H13V12H17V10C17 9.45 17.45 9 18 9H22C22.55 9 23 9.45 23 10V14C23 14.55 22.55 15 22 15H18C17.45 15 17 14.55 17 14V14H13V18H14C14.55 18 15 18.45 15 19V23C15 23.55 14.55 24 14 24H10C9.45 24 9 23.55 9 23V19C9 18.45 9.45 18 10 18H11V14H7V14C7 14.55 6.55 15 6 15H2C1.45 15 1 14.55 1 14V10C1 9.45 1.45 9 2 9H6C6.55 9 7 9.45 7 10V12H11V8H10C9.45 8 9 7.55 9 7V3C9 2.45 9.45 2 10 2Z" />
</svg>

